<svg width="24" height="24" viewBox="0 0 24 24" fill="none" xmlns="http://www.w3.org/2000/svg">
<mask id="mask0_35_19" style="mask-type:alpha" maskUnits="userSpaceOnUse" x="0" y="0" width="24" height="24">
<rect width="24" height="24" fill="#D9D9D9"/>
</mask>
<g mask="url(#mask0_35_19)">
<path d="M6 15H8.4C8.71667 15 8.9875 14.8875 9.2125 14.6625C9.4375 14.4375 9.55 14.1667 9.55 13.85V10.15C9.55 9.83333 9.4375 9.5625 9.2125 9.3375C8.9875 9.1125 8.71667 9 8.4 9H6V15ZM7.15 13.85V10.15H8.4V13.85H7.15ZM10.875 15H13.325V13.85H11.275V12.55H12.575V11.4H11.275V10.15H13.325V9H10.875C10.6583 9 10.4792 9.07083 10.3375 9.2125C10.1958 9.35417 10.125 9.53333 10.125 9.75V14.25C10.125 14.4667 10.1958 14.6458 10.3375 14.7875C10.4792 14.9292 10.6583 15 10.875 15ZM16.025 14.975C16.2417 14.975 16.4292 14.9042 16.5875 14.7625C16.7458 14.6208 16.85 14.4417 16.9 14.225L18.3 9H17.1L16.025 13.1L14.95 9H13.75L15.15 14.225C15.2 14.4417 15.3042 14.6208 15.4625 14.7625C15.6208 14.9042 15.8083 14.975 16.025 14.975ZM5 21C4.45 21 3.97917 20.8042 3.5875 20.4125C3.19583 20.0208 3 19.55 3 19V5C3 4.45 3.19583 3.97917 3.5875 3.5875C3.97917 3.19583 4.45 3 5 3H19C19.55 3 20.0208 3.19583 20.4125 3.5875C20.8042 3.97917 21 4.45 21 5V19C21 19.55 20.8042 20.0208 20.4125 20.4125C20.0208 20.8042 19.55 21 19 21H5ZM5 19H19V5H5V19Z" fill="#1C1B1F"/>
</g>
</svg>
