<svg width="684" height="684" viewBox="0 0 684 684" fill="none" xmlns="http://www.w3.org/2000/svg">
<rect width="684" height="684" fill="white"/>
<path d="M552 502C552 529.614 529.614 552 502 552H182C154.386 552 132 529.614 132 502V182C132 154.386 154.386 132 182 132H411.289C424.55 132 437.268 137.268 446.645 146.645L537.355 237.355C546.732 246.732 552 259.45 552 272.711V502Z" fill="url(#paint0_linear_7_2)"/>
<path d="M213.81 500H192.34V367.38H249.53C261.437 367.38 270.81 370.99 277.65 378.21C284.49 385.303 287.91 394.993 287.91 407.28C287.91 416.78 285.693 424.697 281.26 431.03C276.953 437.237 270.557 441.607 262.07 444.14L290.76 500H266.82L240.22 446.42H213.81V500ZM248.01 428.37C253.457 428.37 257.7 426.977 260.74 424.19C263.78 421.277 265.3 417.16 265.3 411.84V402.72C265.3 397.4 263.78 393.347 260.74 390.56C257.7 387.647 253.457 386.19 248.01 386.19H213.81V428.37H248.01ZM351.299 502.28C344.205 502.28 337.872 501.077 332.299 498.67C326.725 496.263 321.975 492.843 318.049 488.41C314.122 483.85 311.082 478.403 308.929 472.07C306.902 465.61 305.889 458.453 305.889 450.6C305.889 442.747 306.902 435.653 308.929 429.32C311.082 422.86 314.122 417.413 318.049 412.98C321.975 408.42 326.725 404.937 332.299 402.53C337.872 400.123 344.205 398.92 351.299 398.92C358.519 398.92 364.852 400.187 370.299 402.72C375.872 405.253 380.495 408.8 384.169 413.36C387.842 417.793 390.565 422.987 392.339 428.94C394.239 434.893 395.189 441.29 395.189 448.13V455.92H327.359V459.15C327.359 466.75 329.575 473.02 334.009 477.96C338.569 482.773 345.029 485.18 353.389 485.18C359.469 485.18 364.599 483.85 368.779 481.19C372.959 478.53 376.505 474.92 379.419 470.36L391.579 482.33C387.905 488.41 382.585 493.287 375.619 496.96C368.652 500.507 360.545 502.28 351.299 502.28ZM351.299 415.07C347.752 415.07 344.459 415.703 341.419 416.97C338.505 418.237 335.972 420.01 333.819 422.29C331.792 424.57 330.209 427.293 329.069 430.46C327.929 433.627 327.359 437.11 327.359 440.91V442.24H373.339V440.34C373.339 432.74 371.375 426.66 367.449 422.1C363.522 417.413 358.139 415.07 351.299 415.07Z" fill="white"/>
<path d="M414.385 214L487.795 279.919L414.385 339.846" stroke="white" stroke-width="20" stroke-linecap="round" stroke-linejoin="round"/>
<defs>
<linearGradient id="paint0_linear_7_2" x1="552" y1="132" x2="132" y2="552" gradientUnits="userSpaceOnUse">
<stop offset="0.509096" stop-color="#611CD2"/>
<stop offset="1" stop-color="#821CD2"/>
</linearGradient>
</defs>
</svg>
