<svg width="420" height="420" viewBox="0 0 420 420" fill="none" xmlns="http://www.w3.org/2000/svg">
<path d="M420 370C420 397.614 397.614 420 370 420H50C22.3858 420 0 397.614 0 370V50C0 22.3858 22.3858 0 50 0H279.289C292.55 0 305.268 5.26784 314.645 14.6447L405.355 105.355C414.732 114.732 420 127.45 420 140.711V370Z" fill="url(#paint0_linear_7_3)"/>
<path d="M81.81 368H60.34V235.38H117.53C129.437 235.38 138.81 238.99 145.65 246.21C152.49 253.303 155.91 262.993 155.91 275.28C155.91 284.78 153.693 292.697 149.26 299.03C144.953 305.237 138.557 309.607 130.07 312.14L158.76 368H134.82L108.22 314.42H81.81V368ZM116.01 296.37C121.457 296.37 125.7 294.977 128.74 292.19C131.78 289.277 133.3 285.16 133.3 279.84V270.72C133.3 265.4 131.78 261.347 128.74 258.56C125.7 255.647 121.457 254.19 116.01 254.19H81.81V296.37H116.01ZM219.299 370.28C212.205 370.28 205.872 369.077 200.299 366.67C194.725 364.263 189.975 360.843 186.049 356.41C182.122 351.85 179.082 346.403 176.929 340.07C174.902 333.61 173.889 326.453 173.889 318.6C173.889 310.747 174.902 303.653 176.929 297.32C179.082 290.86 182.122 285.413 186.049 280.98C189.975 276.42 194.725 272.937 200.299 270.53C205.872 268.123 212.205 266.92 219.299 266.92C226.519 266.92 232.852 268.187 238.299 270.72C243.872 273.253 248.495 276.8 252.169 281.36C255.842 285.793 258.565 290.987 260.339 296.94C262.239 302.893 263.189 309.29 263.189 316.13V323.92H195.359V327.15C195.359 334.75 197.575 341.02 202.009 345.96C206.569 350.773 213.029 353.18 221.389 353.18C227.469 353.18 232.599 351.85 236.779 349.19C240.959 346.53 244.505 342.92 247.419 338.36L259.579 350.33C255.905 356.41 250.585 361.287 243.619 364.96C236.652 368.507 228.545 370.28 219.299 370.28ZM219.299 283.07C215.752 283.07 212.459 283.703 209.419 284.97C206.505 286.237 203.972 288.01 201.819 290.29C199.792 292.57 198.209 295.293 197.069 298.46C195.929 301.627 195.359 305.11 195.359 308.91V310.24H241.339V308.34C241.339 300.74 239.375 294.66 235.449 290.1C231.522 285.413 226.139 283.07 219.299 283.07Z" fill="white"/>
<path d="M282.385 82L355.795 147.919L282.385 207.846" stroke="white" stroke-width="20" stroke-linecap="round" stroke-linejoin="round"/>
<defs>
<linearGradient id="paint0_linear_7_3" x1="420" y1="-2.50339e-05" x2="-2.5034e-05" y2="420" gradientUnits="userSpaceOnUse">
<stop offset="0.509096" stop-color="#611CD2"/>
<stop offset="1" stop-color="#821CD2"/>
</linearGradient>
</defs>
</svg>
